# xmcd
#
# Track frame offsets:
#	150
#	12624
#	34491
#	54643
#	68978
#	82510
#	98432
#	106811
#	118421
#	136738
#	149137
#	153204
#
# Disc length: 2182 seconds
#
# Revision: 0
# Processed by: cddbd v1.4PL0 Copyright (c) Steve Scherf et al.
# Submitted via: OrangeCD 4.1
#
DISCID=a008840c
DTITLE=Royal Flush - "uh oh"
DYEAR=1900
DGENRE=
TTITLE0=Dookey
TTITLE1=Rock Fan
TTITLE2=Shake Me Down
TTITLE3=Ain't We Funky
TTITLE4=Gangsta Style
TTITLE5=Get From In Fronna Me
TTITLE6=Hip Hop Warriors (uh oh)
TTITLE7=Tipsy Time
TTITLE8=Rulin Schoolin
TTITLE9=Dance Or Die
TTITLE10=Who's On First?
TTITLE11=Too Mo Minnis
EXTD=
EXTT0=
EXTT1=
EXTT2=
EXTT3=
EXTT4=
EXTT5=
EXTT6=
EXTT7=
EXTT8=
EXTT9=
EXTT10=
EXTT11=
PLAYORDER=
